<svg width="235" height="243" viewBox="0 0 235 243" fill="none" xmlns="http://www.w3.org/2000/svg">
<path d="M117.5 0C182.393 6.38824e-05 235 54.336 235 121.362C235 188.388 182.393 242.724 117.5 242.724C52.6067 242.724 0.000191669 188.388 0 121.362C0 54.336 52.6066 0 117.5 0Z" fill="url(#paint0_linear_6_63)"/>
<path d="M121.601 27.8113C130.302 27.9931 138.675 29.5486 146.545 32.2806L75.2723 85.3064L74.7593 85.6903L86.2456 150.988L201.295 152.399C189.032 189.203 155.987 215.23 117.703 214.43C69.8181 213.429 31.8728 170.842 32.9494 119.309C34.0262 67.7759 73.7169 26.8112 121.601 27.8113Z" fill="white"/>
<path d="M163.914 106.982L119.777 130.341L118.117 87.0718L163.914 106.982Z" fill="white"/>
<defs>
<linearGradient id="paint0_linear_6_63" x1="117.5" y1="0" x2="117.5" y2="242.724" gradientUnits="userSpaceOnUse">
<stop stop-color="#67B3FA"/>
<stop offset="1" stop-color="#04419C"/>
</linearGradient>
</defs>
</svg>
